<svg width="512" height="512" xmlns="http://www.w3.org/2000/svg">

 <g>
  <rect fill="none" id="canvas_background" height="402" width="582" y="-1" x="-1"/>
 </g>
 <g>
  <title>Layer 1</title>
  <g id="_x32_73_x2C__Library_x2C__school_x2C__education_x2C__learning_x2C__university">
   <g id="svg_1">
    <path fill="#ffffff" id="svg_2" fill-rule="evenodd" clip-rule="evenodd" d="m136.177,302.029c-3.977,0 -7.588,1.619 -10.223,4.254c-2.608,2.609 -4.24,6.234 -4.24,10.197l0,106.233l28.915,0l0,-106.233c0,-3.891 -1.572,-7.467 -4.096,-10.076l-0.158,-0.121c-2.61,-2.635 -6.236,-4.254 -10.198,-4.254m70.155,4.254c-2.625,-2.635 -6.236,-4.254 -10.223,-4.254c-3.962,0 -7.587,1.619 -10.199,4.229c-2.632,2.635 -4.253,6.26 -4.253,10.223l0,106.233l28.915,0l0,-106.234c0,-3.891 -1.572,-7.467 -4.095,-10.076l-0.145,-0.121zm49.732,-4.254c-3.976,0 -7.601,1.619 -10.212,4.254c-2.622,2.609 -4.25,6.234 -4.25,10.197l0,106.233l28.911,0l0,-106.233c0,-3.891 -1.569,-7.467 -4.096,-10.076l-0.144,-0.121c-2.621,-2.635 -6.246,-4.254 -10.209,-4.254zm59.944,0c-3.977,0 -7.588,1.619 -10.21,4.254c-2.621,2.609 -4.243,6.234 -4.243,10.197l0,106.233l28.904,0l0,-106.233c0,-3.891 -1.558,-7.467 -4.084,-10.076l-0.158,-0.121c-2.622,-2.635 -6.233,-4.254 -10.209,-4.254zm59.941,0c-3.962,0 -7.587,1.619 -10.209,4.254c-2.611,2.609 -4.239,6.234 -4.239,10.197l0,106.233l28.915,0l0,-106.233c0,-3.891 -1.572,-7.467 -4.1,-10.076l-0.154,-0.121c-2.611,-2.635 -6.236,-4.254 -10.213,-4.254zm0,-5.944c5.619,0 10.732,2.296 14.418,5.993l0.179,0.193c3.579,3.673 5.801,8.699 5.801,14.209l0,106.233l17.905,0l0,-174.114l-316.377,0l0,174.115l17.905,0l0,-106.234c0,-5.606 2.295,-10.705 5.984,-14.402c3.685,-3.697 8.784,-5.993 14.414,-5.993c5.608,0 10.704,2.296 14.403,5.993l0.183,0.193c3.586,3.673 5.812,8.699 5.812,14.209l0,106.233l19.137,0l0,-106.233c0,-5.606 2.295,-10.705 5.995,-14.402c3.709,-3.697 8.809,-5.993 14.403,-5.993c5.629,0 10.729,2.296 14.414,5.993l0.183,0.193c3.576,3.673 5.801,8.699 5.801,14.209l0,106.233l19.162,0l0,-106.233c0,-5.606 2.295,-10.705 5.98,-14.402c3.699,-3.697 8.798,-5.993 14.417,-5.993c5.619,0 10.719,2.296 14.403,5.993l0.179,0.193c3.591,3.673 5.813,8.699 5.813,14.209l0,106.233l19.151,0l0,-106.233c0,-5.606 2.299,-10.705 5.983,-14.402c3.695,-3.697 8.795,-5.993 14.414,-5.993c5.618,0 10.718,2.296 14.413,5.993l0.183,0.193c3.576,3.673 5.801,8.699 5.801,14.209l0,106.233l19.152,0l0,-106.233c0,-5.606 2.295,-10.705 5.99,-14.402c3.685,-3.697 8.781,-5.993 14.399,-5.993zm-296.513,139.799l353.245,0l0,-7.226c-117.747,0 -235.484,0 -353.245,0l0,7.226zm362.113,5.945c-123.656,0 -247.314,0 -370.982,0l0,19.573l370.982,0l0,-19.573zm-359.927,-283.393c1.305,1.111 2.344,2.514 3.007,4.156c2.092,0.411 3.977,1.451 5.44,2.925c1.643,1.644 2.766,3.843 3.057,6.283c1.776,0.507 3.369,1.45 4.65,2.729c1.934,1.935 3.145,4.617 3.145,7.564c0,2.853 -1.137,5.462 -2.973,7.371l-0.172,0.217c-1.931,1.935 -4.626,3.143 -7.588,3.143l-43.037,0c-2.951,0 -5.632,-1.208 -7.566,-3.143c-1.944,-1.957 -3.141,-4.639 -3.141,-7.588c0,-1.354 0.267,-2.705 0.761,-3.938l0.084,-0.218c0.337,-0.82 0.796,-1.595 1.33,-2.296l-0.049,-1.015c0,-3.189 1.271,-6.114 3.324,-8.265l0.204,-0.218c2.176,-2.175 5.183,-3.528 8.507,-3.528l0.544,0c0.449,-2.417 1.632,-4.615 3.324,-6.307c2.2,-2.175 5.194,-3.528 8.507,-3.528c2.088,0 4.082,0.556 5.822,1.498c1.014,0.58 1.934,1.281 2.744,2.102l0.253,-0.071c0.955,-0.267 1.934,-0.411 2.899,-0.411c2.635,0 5.053,0.967 6.924,2.538zm259.373,-109.592c0.712,-1.837 1.874,-3.455 3.349,-4.713c2.042,-1.715 4.688,-2.755 7.563,-2.755c1.074,0 2.137,0.146 3.166,0.435l0.494,0.146c0.92,-0.966 2.008,-1.812 3.18,-2.465c1.895,-1.038 4.057,-1.644 6.366,-1.644c3.626,0 6.925,1.499 9.304,3.867c1.934,1.934 3.264,4.446 3.709,7.25l0.931,-0.025c3.64,0 6.925,1.475 9.304,3.867c2.394,2.393 3.878,5.68 3.878,9.305l-0.07,1.231c0.614,0.798 1.147,1.692 1.544,2.635c0.594,1.426 0.92,2.972 0.92,4.543c0,3.214 -1.306,6.138 -3.433,8.265c-2.103,2.127 -5.036,3.432 -8.265,3.432l-48.487,0c-3.215,0 -6.138,-1.305 -8.265,-3.432c-2.116,-2.103 -3.433,-5.025 -3.433,-8.265c0,-3.214 1.306,-6.138 3.422,-8.265c1.449,-1.45 3.274,-2.514 5.313,-3.045c0.281,-2.756 1.513,-5.244 3.373,-7.104c1.63,-1.644 3.757,-2.804 6.137,-3.263zm-246.093,193.81l322.323,0l0.088,0l12.564,0l0,-20.372l-33.13,0l-0.085,0l-281.194,0l-0.084,0l-33.144,0l0,20.372l12.578,0l0.084,0zm74.672,-48.912c0,1.619 -1.327,2.973 -2.973,2.973c-1.632,0 -2.973,-1.354 -2.973,-2.973c0,-17.326 4.773,-33.518 13.038,-47.341c8.581,-14.354 20.941,-26.173 35.646,-34.073c1.439,-0.774 3.25,-0.242 4.012,1.207c0.772,1.426 0.228,3.238 -1.197,4.012c-13.786,7.42 -25.363,18.463 -33.372,31.875c-7.735,12.93 -12.181,28.057 -12.181,44.32zm86.49,-86.489c-1.646,0 -2.972,-1.329 -2.972,-2.973s1.326,-2.973 2.972,-2.973c25.518,0 48.632,10.344 65.354,27.066s27.069,39.85 27.069,65.368c0,1.619 -1.33,2.973 -2.963,2.973c-1.643,0 -2.973,-1.354 -2.973,-2.973c0,-23.875 -9.689,-45.504 -25.338,-61.164c-15.644,-15.634 -37.273,-25.324 -61.149,-25.324zm101.412,1.208c-1.222,-1.111 -1.306,-2.973 -0.204,-4.181c1.109,-1.233 2.984,-1.306 4.191,-0.218c14.512,13.268 27.346,30.957 36.092,49.274c8.457,17.689 13.146,36.056 11.963,51.667c-0.122,1.643 -1.547,2.875 -3.179,2.755c-1.629,-0.121 -2.851,-1.547 -2.73,-3.19c1.102,-14.572 -3.359,-31.875 -11.382,-48.67c-8.434,-17.64 -20.784,-34.677 -34.751,-47.437zm-306.724,364.566c-1.646,0 -2.973,-1.329 -2.973,-2.973c0,-1.619 1.327,-2.973 2.973,-2.973l292.72,0c1.643,0 2.973,1.354 2.973,2.973c0,1.644 -1.33,2.973 -2.973,2.973l-292.72,0zm171.408,10.972c-1.642,0 -2.972,-1.33 -2.972,-2.973c0,-1.644 1.33,-2.973 2.972,-2.973l202.558,0c1.643,0 2.973,1.329 2.973,2.973c0,1.643 -1.33,2.973 -2.973,2.973l-202.558,0zm223.292,0c-1.643,0 -2.973,-1.33 -2.973,-2.973c0,-1.644 1.33,-2.973 2.973,-2.973l25.324,0c1.632,0 2.973,1.329 2.973,2.973c0,1.643 -1.341,2.973 -2.973,2.973l-25.324,0zm-406.228,-0.339c-1.643,0 -2.973,-1.329 -2.973,-2.973c0,-1.619 1.33,-2.973 2.973,-2.973l95.988,0c1.628,0 2.973,1.354 2.973,2.973c0,1.644 -1.344,2.973 -2.973,2.973l-95.988,0zm405.975,-265.027c0,-1.643 1.341,-2.973 2.973,-2.973c1.643,0 2.973,1.33 2.973,2.973l0,39.874c0,1.644 -1.33,2.972 -2.973,2.972l-12.652,0l0,111.333c0,1.644 -1.33,2.973 -2.972,2.973c-1.643,0 -2.973,-1.329 -2.973,-2.973l0,-114.305c0,-1.644 1.33,-2.972 2.973,-2.972l12.651,0l0,-36.902zm-91.819,-96.639c-24.251,-24.263 -57.514,-39.512 -94.343,-40.285l0,-25.953l24.599,0c1.646,0 2.973,-1.33 2.973,-2.973l0,-19.115c0,-1.645 -1.327,-2.973 -2.973,-2.973l-24.599,0l0,-3.721c0,-1.645 -1.344,-2.973 -2.973,-2.973c-1.646,0 -2.972,1.328 -2.972,2.973l0,54.734c-36.829,0.773 -70.095,16.022 -94.346,40.285c-24.261,24.238 -39.51,57.514 -40.282,94.343l275.201,0c-0.786,-36.828 -16.024,-70.104 -40.285,-94.342z"/>
   </g>
  </g>
  <g id="Layer_1"/>
  <ellipse ry="0.5" rx="0.5" id="svg_3" cy="222" cx="290" stroke-width="1.5" stroke="#000" fill="#d18383"/>
 </g>
</svg>